<mxfile host="Electron" modified="2025-01-29T01:38:13.637Z" agent="Mozilla/5.0 (Windows NT 10.0; Win64; x64) AppleWebKit/537.36 (KHTML, like Gecko) draw.io/24.0.4 Chrome/120.0.6099.109 Electron/28.1.0 Safari/537.36" etag="B5bVgK4YYjyxBQ35j_Bn" version="24.0.4" type="device">
  <diagram id="slt9d-Qci6DvY567qZpB" name="Person">
    <mxGraphModel dx="2074" dy="836" grid="1" gridSize="10" guides="1" tooltips="1" connect="1" arrows="1" fold="1" page="1" pageScale="1" pageWidth="827" pageHeight="1169" math="0" shadow="0">
      <root>
        <mxCell id="0" />
        <mxCell id="1" parent="0" />
        <mxCell id="VEprOOWBBuGNMUdgeFMS-1" value="Person" style="ellipse;whiteSpace=wrap;html=1;fillColor=#dae8fc;strokeColor=#6c8ebf;rounded=1;" parent="1" vertex="1">
          <mxGeometry y="120" width="120" height="80" as="geometry" />
        </mxCell>
        <mxCell id="VEprOOWBBuGNMUdgeFMS-2" value="Dados pessoais" style="whiteSpace=wrap;html=1;aspect=fixed;align=center;fillColor=#dae8fc;strokeColor=#6c8ebf;rounded=1;" parent="1" vertex="1">
          <mxGeometry y="200" width="120" height="120" as="geometry" />
        </mxCell>
        <mxCell id="VEprOOWBBuGNMUdgeFMS-3" value="Queries" style="swimlane;whiteSpace=wrap;html=1;fillColor=#dae8fc;strokeColor=#6c8ebf;rounded=1;" parent="1" vertex="1">
          <mxGeometry x="150" y="120" width="200" height="200" as="geometry" />
        </mxCell>
        <mxCell id="VEprOOWBBuGNMUdgeFMS-4" value="Events" style="swimlane;whiteSpace=wrap;html=1;startSize=23;fillColor=#dae8fc;strokeColor=#6c8ebf;rounded=1;" parent="1" vertex="1">
          <mxGeometry x="960" y="120" width="200" height="200" as="geometry" />
        </mxCell>
        <mxCell id="VEprOOWBBuGNMUdgeFMS-5" value="CreatePersonCommandEvent" style="rounded=1;whiteSpace=wrap;html=1;" parent="VEprOOWBBuGNMUdgeFMS-4" vertex="1">
          <mxGeometry x="10" y="40" width="180" height="40" as="geometry" />
        </mxCell>
        <mxCell id="VEprOOWBBuGNMUdgeFMS-6" value="UpdatePersonCommandEvent" style="rounded=1;whiteSpace=wrap;html=1;" parent="VEprOOWBBuGNMUdgeFMS-4" vertex="1">
          <mxGeometry x="10" y="90" width="180" height="40" as="geometry" />
        </mxCell>
        <mxCell id="VEprOOWBBuGNMUdgeFMS-7" value="&lt;font style=&quot;font-size: 18px;&quot;&gt;Definir&lt;br&gt;Papeis e responsabilidades para os contextos delimitados&lt;/font&gt;" style="rounded=1;whiteSpace=wrap;html=1;" parent="1" vertex="1">
          <mxGeometry x="20" y="17" width="1180" height="60" as="geometry" />
        </mxCell>
        <mxCell id="VEprOOWBBuGNMUdgeFMS-8" value="Person" style="ellipse;whiteSpace=wrap;html=1;fillColor=#dae8fc;strokeColor=#6c8ebf;rounded=1;" parent="1" vertex="1">
          <mxGeometry x="20" y="719" width="120" height="80" as="geometry" />
        </mxCell>
        <mxCell id="VEprOOWBBuGNMUdgeFMS-9" style="edgeStyle=orthogonalEdgeStyle;rounded=0;orthogonalLoop=1;jettySize=auto;html=1;strokeWidth=3;fillColor=#dae8fc;strokeColor=#6c8ebf;" parent="1" source="VEprOOWBBuGNMUdgeFMS-13" target="VEprOOWBBuGNMUdgeFMS-17" edge="1">
          <mxGeometry relative="1" as="geometry" />
        </mxCell>
        <mxCell id="VEprOOWBBuGNMUdgeFMS-10" style="edgeStyle=orthogonalEdgeStyle;rounded=0;orthogonalLoop=1;jettySize=auto;html=1;entryX=0;entryY=0.5;entryDx=0;entryDy=0;strokeWidth=3;fillColor=#dae8fc;strokeColor=#6c8ebf;" parent="1" source="VEprOOWBBuGNMUdgeFMS-13" target="VEprOOWBBuGNMUdgeFMS-14" edge="1">
          <mxGeometry relative="1" as="geometry">
            <Array as="points">
              <mxPoint x="246" y="920" />
              <mxPoint x="246" y="1097" />
            </Array>
          </mxGeometry>
        </mxCell>
        <mxCell id="VEprOOWBBuGNMUdgeFMS-11" style="edgeStyle=orthogonalEdgeStyle;rounded=0;orthogonalLoop=1;jettySize=auto;html=1;entryX=0;entryY=0.5;entryDx=0;entryDy=0;strokeWidth=3;fillColor=#dae8fc;strokeColor=#6c8ebf;" parent="1" source="VEprOOWBBuGNMUdgeFMS-13" target="VEprOOWBBuGNMUdgeFMS-40" edge="1">
          <mxGeometry relative="1" as="geometry">
            <Array as="points">
              <mxPoint x="150" y="1130" />
              <mxPoint x="245" y="1130" />
              <mxPoint x="245" y="1190" />
            </Array>
          </mxGeometry>
        </mxCell>
        <mxCell id="VEprOOWBBuGNMUdgeFMS-12" style="edgeStyle=orthogonalEdgeStyle;rounded=0;orthogonalLoop=1;jettySize=auto;html=1;entryX=0;entryY=0.5;entryDx=0;entryDy=0;strokeWidth=3;fillColor=#dae8fc;strokeColor=#6c8ebf;" parent="1" source="VEprOOWBBuGNMUdgeFMS-13" target="VEprOOWBBuGNMUdgeFMS-41" edge="1">
          <mxGeometry relative="1" as="geometry">
            <Array as="points">
              <mxPoint x="85" y="1170" />
              <mxPoint x="230" y="1170" />
              <mxPoint x="230" y="1315" />
            </Array>
          </mxGeometry>
        </mxCell>
        <mxCell id="VEprOOWBBuGNMUdgeFMS-13" value="Person Aggregate&lt;ul&gt;&lt;li&gt;CPF&lt;/li&gt;&lt;li&gt;FirstName&lt;/li&gt;&lt;li&gt;LastName&lt;/li&gt;&lt;li&gt;Address&lt;/li&gt;&lt;li&gt;Phone&lt;/li&gt;&lt;li&gt;Gender&lt;/li&gt;&lt;li&gt;Email&lt;/li&gt;&lt;/ul&gt;" style="rounded=1;whiteSpace=wrap;html=1;align=left;fillColor=#dae8fc;strokeColor=#6c8ebf;" parent="1" vertex="1">
          <mxGeometry y="799" width="170" height="180" as="geometry" />
        </mxCell>
        <mxCell id="VEprOOWBBuGNMUdgeFMS-14" value="CPF Objeto Valor&lt;br&gt;&lt;ul&gt;&lt;li&gt;Numero&lt;/li&gt;&lt;/ul&gt;" style="rounded=1;whiteSpace=wrap;html=1;align=left;fillColor=#dae8fc;strokeColor=#6c8ebf;" parent="1" vertex="1">
          <mxGeometry x="322" y="1067" width="200" height="60" as="geometry" />
        </mxCell>
        <mxCell id="VEprOOWBBuGNMUdgeFMS-15" style="edgeStyle=orthogonalEdgeStyle;rounded=0;orthogonalLoop=1;jettySize=auto;html=1;strokeWidth=3;fillColor=#dae8fc;strokeColor=#6c8ebf;" parent="1" source="VEprOOWBBuGNMUdgeFMS-17" target="VEprOOWBBuGNMUdgeFMS-18" edge="1">
          <mxGeometry relative="1" as="geometry" />
        </mxCell>
        <mxCell id="VEprOOWBBuGNMUdgeFMS-16" style="edgeStyle=orthogonalEdgeStyle;rounded=0;orthogonalLoop=1;jettySize=auto;html=1;strokeWidth=3;fillColor=#dae8fc;strokeColor=#6c8ebf;" parent="1" source="VEprOOWBBuGNMUdgeFMS-17" target="VEprOOWBBuGNMUdgeFMS-19" edge="1">
          <mxGeometry relative="1" as="geometry">
            <Array as="points">
              <mxPoint x="730" y="890" />
              <mxPoint x="730" y="960" />
            </Array>
          </mxGeometry>
        </mxCell>
        <mxCell id="VEprOOWBBuGNMUdgeFMS-17" value="Address ValueObject&lt;br&gt;&lt;ul&gt;&lt;li&gt;CEP&lt;/li&gt;&lt;li&gt;State&lt;/li&gt;&lt;li&gt;City&lt;/li&gt;&lt;li&gt;Neighborhood&lt;/li&gt;&lt;li&gt;Street&lt;/li&gt;&lt;li&gt;Number&lt;/li&gt;&lt;li&gt;Complement&lt;/li&gt;&lt;li&gt;Geolocation&lt;/li&gt;&lt;/ul&gt;" style="rounded=1;whiteSpace=wrap;html=1;align=left;fillColor=#dae8fc;strokeColor=#6c8ebf;" parent="1" vertex="1">
          <mxGeometry x="430" y="760" width="200" height="210" as="geometry" />
        </mxCell>
        <mxCell id="VEprOOWBBuGNMUdgeFMS-18" value="CEP Objeto Valor&lt;br&gt;&lt;ul&gt;&lt;li&gt;Number&lt;/li&gt;&lt;/ul&gt;" style="rounded=1;whiteSpace=wrap;html=1;align=left;fillColor=#dae8fc;strokeColor=#6c8ebf;" parent="1" vertex="1">
          <mxGeometry x="830" y="780" width="180" height="60" as="geometry" />
        </mxCell>
        <mxCell id="VEprOOWBBuGNMUdgeFMS-19" value="Geolocation Objeto Valor&lt;br&gt;&lt;ul&gt;&lt;li&gt;Latitude&lt;/li&gt;&lt;li&gt;Longitude&lt;/li&gt;&lt;/ul&gt;" style="rounded=1;whiteSpace=wrap;html=1;align=left;fillColor=#dae8fc;strokeColor=#6c8ebf;" parent="1" vertex="1">
          <mxGeometry x="830" y="920" width="180" height="80" as="geometry" />
        </mxCell>
        <mxCell id="VEprOOWBBuGNMUdgeFMS-20" value="GetPersonQuery" style="rounded=1;whiteSpace=wrap;html=1;" parent="1" vertex="1">
          <mxGeometry x="160" y="160" width="180" height="40" as="geometry" />
        </mxCell>
        <mxCell id="VEprOOWBBuGNMUdgeFMS-21" value="GetPersonByIdQuery" style="rounded=1;whiteSpace=wrap;html=1;" parent="1" vertex="1">
          <mxGeometry x="160" y="210" width="180" height="40" as="geometry" />
        </mxCell>
        <mxCell id="VEprOOWBBuGNMUdgeFMS-22" value="Commands" style="swimlane;whiteSpace=wrap;html=1;startSize=23;fillColor=#dae8fc;strokeColor=#6c8ebf;rounded=1;" parent="1" vertex="1">
          <mxGeometry x="370" y="120" width="290" height="490" as="geometry" />
        </mxCell>
        <mxCell id="VEprOOWBBuGNMUdgeFMS-23" value="Person" style="swimlane;whiteSpace=wrap;html=1;startSize=23;fillColor=#dae8fc;strokeColor=#6c8ebf;rounded=1;" parent="VEprOOWBBuGNMUdgeFMS-22" vertex="1">
          <mxGeometry x="11" y="50" width="259" height="190" as="geometry" />
        </mxCell>
        <mxCell id="VEprOOWBBuGNMUdgeFMS-24" value="CreatePersonCommand" style="rounded=1;whiteSpace=wrap;html=1;" parent="VEprOOWBBuGNMUdgeFMS-23" vertex="1">
          <mxGeometry x="20" y="40" width="220" height="40" as="geometry" />
        </mxCell>
        <mxCell id="VEprOOWBBuGNMUdgeFMS-25" value="UpdatePersonCommand" style="rounded=1;whiteSpace=wrap;html=1;" parent="VEprOOWBBuGNMUdgeFMS-23" vertex="1">
          <mxGeometry x="20" y="90" width="220" height="40" as="geometry" />
        </mxCell>
        <mxCell id="VEprOOWBBuGNMUdgeFMS-26" value="DeletePersonCommand" style="rounded=1;whiteSpace=wrap;html=1;" parent="VEprOOWBBuGNMUdgeFMS-23" vertex="1">
          <mxGeometry x="20" y="140" width="220" height="40" as="geometry" />
        </mxCell>
        <mxCell id="VEprOOWBBuGNMUdgeFMS-27" value="User" style="swimlane;whiteSpace=wrap;html=1;startSize=23;fillColor=#d5e8d4;strokeColor=#82b366;rounded=1;" parent="1" vertex="1">
          <mxGeometry x="381" y="375" width="259" height="225" as="geometry" />
        </mxCell>
        <mxCell id="VEprOOWBBuGNMUdgeFMS-28" value="CreateUserCommand" style="rounded=1;whiteSpace=wrap;html=1;" parent="VEprOOWBBuGNMUdgeFMS-27" vertex="1">
          <mxGeometry x="20" y="30" width="220" height="40" as="geometry" />
        </mxCell>
        <mxCell id="VEprOOWBBuGNMUdgeFMS-29" value="DeleteUserByPersonIdCommand" style="rounded=1;whiteSpace=wrap;html=1;" parent="1" vertex="1">
          <mxGeometry x="401" y="465" width="219" height="40" as="geometry" />
        </mxCell>
        <mxCell id="VEprOOWBBuGNMUdgeFMS-30" style="edgeStyle=orthogonalEdgeStyle;rounded=0;orthogonalLoop=1;jettySize=auto;html=1;entryX=0;entryY=0.5;entryDx=0;entryDy=0;strokeWidth=3;fillColor=#d5e8d4;strokeColor=#82b366;" parent="1" source="VEprOOWBBuGNMUdgeFMS-31" target="VEprOOWBBuGNMUdgeFMS-34" edge="1">
          <mxGeometry relative="1" as="geometry" />
        </mxCell>
        <mxCell id="VEprOOWBBuGNMUdgeFMS-31" value="DeleteUserCommand" style="rounded=1;whiteSpace=wrap;html=1;" parent="1" vertex="1">
          <mxGeometry x="401" y="525" width="219" height="40" as="geometry" />
        </mxCell>
        <mxCell id="VEprOOWBBuGNMUdgeFMS-32" value="Events" style="swimlane;whiteSpace=wrap;html=1;startSize=23;fillColor=#d5e8d4;strokeColor=#82b366;rounded=1;" parent="1" vertex="1">
          <mxGeometry x="960" y="390" width="200" height="200" as="geometry" />
        </mxCell>
        <mxCell id="VEprOOWBBuGNMUdgeFMS-33" value="UserCreatedEvent" style="rounded=1;whiteSpace=wrap;html=1;" parent="VEprOOWBBuGNMUdgeFMS-32" vertex="1">
          <mxGeometry x="10" y="40" width="180" height="40" as="geometry" />
        </mxCell>
        <mxCell id="VEprOOWBBuGNMUdgeFMS-34" value="UserDeletedEvent" style="rounded=1;whiteSpace=wrap;html=1;" parent="VEprOOWBBuGNMUdgeFMS-32" vertex="1">
          <mxGeometry x="10" y="100" width="180" height="40" as="geometry" />
        </mxCell>
        <mxCell id="VEprOOWBBuGNMUdgeFMS-35" style="edgeStyle=orthogonalEdgeStyle;rounded=0;orthogonalLoop=1;jettySize=auto;html=1;strokeWidth=3;fillColor=#d5e8d4;strokeColor=#82b366;" parent="1" source="VEprOOWBBuGNMUdgeFMS-28" target="VEprOOWBBuGNMUdgeFMS-33" edge="1">
          <mxGeometry relative="1" as="geometry" />
        </mxCell>
        <mxCell id="VEprOOWBBuGNMUdgeFMS-36" value="DeletePersonCommandEvent" style="rounded=1;whiteSpace=wrap;html=1;" parent="1" vertex="1">
          <mxGeometry x="970" y="260" width="180" height="40" as="geometry" />
        </mxCell>
        <mxCell id="VEprOOWBBuGNMUdgeFMS-37" style="edgeStyle=orthogonalEdgeStyle;rounded=0;orthogonalLoop=1;jettySize=auto;html=1;entryX=0;entryY=0.5;entryDx=0;entryDy=0;strokeWidth=3;fillColor=#dae8fc;strokeColor=#6c8ebf;" parent="1" source="VEprOOWBBuGNMUdgeFMS-24" target="VEprOOWBBuGNMUdgeFMS-5" edge="1">
          <mxGeometry relative="1" as="geometry" />
        </mxCell>
        <mxCell id="VEprOOWBBuGNMUdgeFMS-38" style="edgeStyle=orthogonalEdgeStyle;rounded=0;orthogonalLoop=1;jettySize=auto;html=1;entryX=0;entryY=0.5;entryDx=0;entryDy=0;strokeWidth=3;fillColor=#dae8fc;strokeColor=#6c8ebf;" parent="1" source="VEprOOWBBuGNMUdgeFMS-25" target="VEprOOWBBuGNMUdgeFMS-6" edge="1">
          <mxGeometry relative="1" as="geometry">
            <Array as="points">
              <mxPoint x="796" y="280" />
              <mxPoint x="796" y="250" />
              <mxPoint x="970" y="250" />
            </Array>
          </mxGeometry>
        </mxCell>
        <mxCell id="VEprOOWBBuGNMUdgeFMS-39" style="edgeStyle=orthogonalEdgeStyle;rounded=0;orthogonalLoop=1;jettySize=auto;html=1;strokeWidth=3;fillColor=#dae8fc;strokeColor=#6c8ebf;" parent="1" source="VEprOOWBBuGNMUdgeFMS-26" target="VEprOOWBBuGNMUdgeFMS-36" edge="1">
          <mxGeometry relative="1" as="geometry">
            <Array as="points">
              <mxPoint x="690" y="330" />
              <mxPoint x="690" y="290" />
            </Array>
          </mxGeometry>
        </mxCell>
        <mxCell id="VEprOOWBBuGNMUdgeFMS-40" value="Email ValueObject&lt;br&gt;&lt;ul&gt;&lt;li&gt;Address&lt;br&gt;&lt;/li&gt;&lt;/ul&gt;" style="rounded=1;whiteSpace=wrap;html=1;align=left;fillColor=#dae8fc;strokeColor=#6c8ebf;" parent="1" vertex="1">
          <mxGeometry x="320" y="1160" width="200" height="60" as="geometry" />
        </mxCell>
        <mxCell id="VEprOOWBBuGNMUdgeFMS-41" value="PhoneNumber ValueObject&lt;br&gt;&lt;ul&gt;&lt;li&gt;Phone&lt;br&gt;&lt;/li&gt;&lt;/ul&gt;" style="rounded=1;whiteSpace=wrap;html=1;align=left;fillColor=#dae8fc;strokeColor=#6c8ebf;" parent="1" vertex="1">
          <mxGeometry x="320" y="1270" width="200" height="90" as="geometry" />
        </mxCell>
        <mxCell id="VEprOOWBBuGNMUdgeFMS-42" style="edgeStyle=orthogonalEdgeStyle;rounded=0;orthogonalLoop=1;jettySize=auto;html=1;entryX=1;entryY=0.75;entryDx=0;entryDy=0;fillColor=#dae8fc;strokeColor=#6c8ebf;strokeWidth=2;sketch=1;curveFitting=1;jiggle=2;" parent="1" source="VEprOOWBBuGNMUdgeFMS-43" target="VEprOOWBBuGNMUdgeFMS-56" edge="1">
          <mxGeometry relative="1" as="geometry">
            <Array as="points">
              <mxPoint x="580" y="1555" />
              <mxPoint x="580" y="1555" />
            </Array>
          </mxGeometry>
        </mxCell>
        <mxCell id="VEprOOWBBuGNMUdgeFMS-43" value="SQL DataBase - SQL Server" style="shape=cylinder3;whiteSpace=wrap;html=1;boundedLbl=1;backgroundOutline=1;size=15;sketch=1;curveFitting=1;jiggle=2;fillColor=#f5f5f5;fontColor=#333333;strokeColor=#666666;" parent="1" vertex="1">
          <mxGeometry x="650" y="1440" width="150" height="130" as="geometry" />
        </mxCell>
        <mxCell id="VEprOOWBBuGNMUdgeFMS-44" style="edgeStyle=orthogonalEdgeStyle;rounded=0;orthogonalLoop=1;jettySize=auto;html=1;entryX=1;entryY=0.5;entryDx=0;entryDy=0;sketch=1;curveFitting=1;jiggle=2;fillColor=#dae8fc;strokeColor=#6c8ebf;strokeWidth=2;" parent="1" source="VEprOOWBBuGNMUdgeFMS-45" target="VEprOOWBBuGNMUdgeFMS-51" edge="1">
          <mxGeometry relative="1" as="geometry">
            <Array as="points">
              <mxPoint x="580" y="1750" />
              <mxPoint x="580" y="1750" />
            </Array>
          </mxGeometry>
        </mxCell>
        <mxCell id="VEprOOWBBuGNMUdgeFMS-45" value="Cache Redis" style="shape=cylinder3;whiteSpace=wrap;html=1;boundedLbl=1;backgroundOutline=1;size=15;sketch=1;curveFitting=1;jiggle=2;fillColor=#f5f5f5;fontColor=#333333;strokeColor=#666666;" parent="1" vertex="1">
          <mxGeometry x="640" y="1680" width="115" height="100" as="geometry" />
        </mxCell>
        <mxCell id="VEprOOWBBuGNMUdgeFMS-46" style="edgeStyle=orthogonalEdgeStyle;rounded=0;orthogonalLoop=1;jettySize=auto;html=1;entryX=0;entryY=0.25;entryDx=0;entryDy=0;fillColor=#e1d5e7;strokeColor=#9673a6;sketch=1;curveFitting=1;jiggle=2;strokeWidth=2;" parent="1" source="VEprOOWBBuGNMUdgeFMS-47" target="VEprOOWBBuGNMUdgeFMS-56" edge="1">
          <mxGeometry relative="1" as="geometry" />
        </mxCell>
        <mxCell id="VEprOOWBBuGNMUdgeFMS-47" value="User" style="shape=umlActor;verticalLabelPosition=bottom;verticalAlign=top;html=1;outlineConnect=0;fillColor=#f8cecc;strokeColor=#b85450;sketch=1;curveFitting=1;jiggle=2;" parent="1" vertex="1">
          <mxGeometry x="20" y="1500" width="30" height="60" as="geometry" />
        </mxCell>
        <mxCell id="VEprOOWBBuGNMUdgeFMS-48" style="edgeStyle=orthogonalEdgeStyle;rounded=0;orthogonalLoop=1;jettySize=auto;html=1;entryX=0.017;entryY=0.133;entryDx=0;entryDy=0;entryPerimeter=0;strokeWidth=2;fillColor=#e1d5e7;strokeColor=#9673a6;sketch=1;curveFitting=1;jiggle=2;" parent="1" source="VEprOOWBBuGNMUdgeFMS-49" target="VEprOOWBBuGNMUdgeFMS-51" edge="1">
          <mxGeometry relative="1" as="geometry" />
        </mxCell>
        <mxCell id="VEprOOWBBuGNMUdgeFMS-49" value="User" style="shape=umlActor;verticalLabelPosition=bottom;verticalAlign=top;html=1;outlineConnect=0;fillColor=#f8cecc;strokeColor=#b85450;sketch=1;curveFitting=1;jiggle=2;" parent="1" vertex="1">
          <mxGeometry x="20" y="1700" width="30" height="60" as="geometry" />
        </mxCell>
        <mxCell id="VEprOOWBBuGNMUdgeFMS-50" style="edgeStyle=orthogonalEdgeStyle;rounded=0;orthogonalLoop=1;jettySize=auto;html=1;fillColor=#e1d5e7;strokeColor=#9673a6;strokeWidth=2;sketch=1;curveFitting=1;jiggle=2;" parent="1" source="VEprOOWBBuGNMUdgeFMS-51" target="VEprOOWBBuGNMUdgeFMS-45" edge="1">
          <mxGeometry relative="1" as="geometry">
            <Array as="points">
              <mxPoint x="470" y="1730" />
              <mxPoint x="470" y="1730" />
            </Array>
          </mxGeometry>
        </mxCell>
        <mxCell id="VEprOOWBBuGNMUdgeFMS-51" value="Query&amp;nbsp;Handler" style="rounded=0;whiteSpace=wrap;html=1;fillColor=#fff2cc;strokeColor=#d6b656;sketch=1;curveFitting=1;jiggle=2;" parent="1" vertex="1">
          <mxGeometry x="290" y="1720" width="120" height="60" as="geometry" />
        </mxCell>
        <mxCell id="VEprOOWBBuGNMUdgeFMS-52" style="edgeStyle=orthogonalEdgeStyle;rounded=0;orthogonalLoop=1;jettySize=auto;html=1;entryX=1;entryY=1;entryDx=0;entryDy=0;entryPerimeter=0;fillColor=#dae8fc;strokeColor=#6c8ebf;strokeWidth=2;sketch=1;curveFitting=1;jiggle=2;" parent="1" source="VEprOOWBBuGNMUdgeFMS-51" target="VEprOOWBBuGNMUdgeFMS-49" edge="1">
          <mxGeometry relative="1" as="geometry">
            <Array as="points">
              <mxPoint x="170" y="1750" />
              <mxPoint x="170" y="1760" />
            </Array>
          </mxGeometry>
        </mxCell>
        <mxCell id="VEprOOWBBuGNMUdgeFMS-53" value="GET" style="text;html=1;align=center;verticalAlign=middle;resizable=0;points=[];autosize=1;strokeColor=none;fillColor=none;sketch=1;curveFitting=1;jiggle=2;" parent="1" vertex="1">
          <mxGeometry x="105" y="1698" width="50" height="30" as="geometry" />
        </mxCell>
        <mxCell id="VEprOOWBBuGNMUdgeFMS-54" style="edgeStyle=orthogonalEdgeStyle;rounded=0;orthogonalLoop=1;jettySize=auto;html=1;entryX=0.06;entryY=0.954;entryDx=0;entryDy=0;entryPerimeter=0;fillColor=#e1d5e7;strokeColor=#9673a6;strokeWidth=2;sketch=1;curveFitting=1;jiggle=2;" parent="1" source="VEprOOWBBuGNMUdgeFMS-51" target="VEprOOWBBuGNMUdgeFMS-43" edge="1">
          <mxGeometry relative="1" as="geometry">
            <Array as="points">
              <mxPoint x="350" y="1690" />
              <mxPoint x="580" y="1690" />
              <mxPoint x="580" y="1580" />
              <mxPoint x="659" y="1580" />
            </Array>
          </mxGeometry>
        </mxCell>
        <mxCell id="VEprOOWBBuGNMUdgeFMS-55" style="edgeStyle=orthogonalEdgeStyle;rounded=0;orthogonalLoop=1;jettySize=auto;html=1;fillColor=#dae8fc;strokeColor=#6c8ebf;strokeWidth=2;sketch=1;curveFitting=1;jiggle=2;" parent="1" source="VEprOOWBBuGNMUdgeFMS-56" target="VEprOOWBBuGNMUdgeFMS-47" edge="1">
          <mxGeometry relative="1" as="geometry">
            <Array as="points">
              <mxPoint x="165" y="1540" />
              <mxPoint x="165" y="1550" />
            </Array>
          </mxGeometry>
        </mxCell>
        <mxCell id="VEprOOWBBuGNMUdgeFMS-56" value="Command" style="rounded=0;whiteSpace=wrap;html=1;fillColor=#d5e8d4;strokeColor=#82b366;sketch=1;curveFitting=1;jiggle=2;" parent="1" vertex="1">
          <mxGeometry x="280" y="1510" width="120" height="60" as="geometry" />
        </mxCell>
        <mxCell id="VEprOOWBBuGNMUdgeFMS-57" style="edgeStyle=orthogonalEdgeStyle;rounded=0;orthogonalLoop=1;jettySize=auto;html=1;entryX=0.007;entryY=0.215;entryDx=0;entryDy=0;entryPerimeter=0;fillColor=#e1d5e7;strokeColor=#9673a6;sketch=1;curveFitting=1;jiggle=2;strokeWidth=2;" parent="1" source="VEprOOWBBuGNMUdgeFMS-56" target="VEprOOWBBuGNMUdgeFMS-43" edge="1">
          <mxGeometry relative="1" as="geometry" />
        </mxCell>
        <mxCell id="VEprOOWBBuGNMUdgeFMS-58" style="edgeStyle=orthogonalEdgeStyle;rounded=0;orthogonalLoop=1;jettySize=auto;html=1;entryX=0.217;entryY=0.05;entryDx=0;entryDy=0;entryPerimeter=0;fillColor=#d5e8d4;strokeColor=#82b366;sketch=1;curveFitting=1;jiggle=2;strokeWidth=2;" parent="1" source="VEprOOWBBuGNMUdgeFMS-56" target="VEprOOWBBuGNMUdgeFMS-45" edge="1">
          <mxGeometry relative="1" as="geometry">
            <Array as="points">
              <mxPoint x="340" y="1610" />
              <mxPoint x="665" y="1610" />
            </Array>
          </mxGeometry>
        </mxCell>
        <mxCell id="VEprOOWBBuGNMUdgeFMS-59" value="POST / PUT / DELETE" style="text;html=1;align=center;verticalAlign=middle;resizable=0;points=[];autosize=1;strokeColor=none;fillColor=none;sketch=1;curveFitting=1;jiggle=2;" parent="1" vertex="1">
          <mxGeometry x="85" y="1478" width="150" height="30" as="geometry" />
        </mxCell>
      </root>
    </mxGraphModel>
  </diagram>
</mxfile>
